<mxfile host="app.diagrams.net" agent="Mozilla/5.0 (Windows NT 10.0; Win64; x64) AppleWebKit/537.36 (KHTML, like Gecko) Chrome/135.0.0.0 Safari/537.36 Edg/135.0.0.0" version="26.2.14">
  <diagram name="第 1 页" id="iV5VWPJFMeekbAYbayZg">
    <mxGraphModel dx="2105" dy="688" grid="1" gridSize="10" guides="1" tooltips="1" connect="1" arrows="1" fold="1" page="1" pageScale="1" pageWidth="827" pageHeight="1169" math="0" shadow="0">
      <root>
        <mxCell id="0" />
        <mxCell id="1" parent="0" />
        <mxCell id="Bb-n1Ab2ICE6nqUvMJgO-1" value="" style="rounded=0;whiteSpace=wrap;html=1;" vertex="1" parent="1">
          <mxGeometry x="-70" y="330" width="890" height="400" as="geometry" />
        </mxCell>
        <mxCell id="Bb-n1Ab2ICE6nqUvMJgO-2" value="" style="rounded=0;whiteSpace=wrap;html=1;" vertex="1" parent="1">
          <mxGeometry x="200" y="500" width="360" height="200" as="geometry" />
        </mxCell>
        <mxCell id="Bb-n1Ab2ICE6nqUvMJgO-3" value="&lt;span style=&quot;text-align: start; white-space-collapse: preserve; background-color: rgb(255, 255, 255);&quot;&gt;&lt;font style=&quot;font-size: 16px; color: rgb(0, 0, 0);&quot; face=&quot;Helvetica&quot;&gt;GPIO&lt;/font&gt;&lt;/span&gt;" style="rounded=0;whiteSpace=wrap;html=1;" vertex="1" parent="1">
          <mxGeometry x="200" y="527" width="80" height="40" as="geometry" />
        </mxCell>
        <mxCell id="Bb-n1Ab2ICE6nqUvMJgO-4" value="&lt;div&gt;&lt;br&gt;&lt;/div&gt;&lt;span style=&quot;color: rgb(0, 0, 0); font-family: Helvetica; font-size: 16px; font-style: normal; font-variant-ligatures: normal; font-variant-caps: normal; font-weight: 400; letter-spacing: normal; orphans: 2; text-align: start; text-indent: 0px; text-transform: none; widows: 2; word-spacing: 0px; -webkit-text-stroke-width: 0px; white-space: pre-wrap; background-color: rgb(255, 255, 255); text-decoration-thickness: initial; text-decoration-style: initial; text-decoration-color: initial; float: none; display: inline !important;&quot;&gt;GPIO&lt;/span&gt;&lt;div&gt;&lt;br&gt;&lt;/div&gt;" style="rounded=0;whiteSpace=wrap;html=1;" vertex="1" parent="1">
          <mxGeometry x="200" y="586" width="80" height="40" as="geometry" />
        </mxCell>
        <mxCell id="Bb-n1Ab2ICE6nqUvMJgO-5" value="&lt;span style=&quot;font-size: 16px; text-align: start; white-space-collapse: preserve; background-color: rgb(255, 255, 255);&quot;&gt;GPIO&lt;/span&gt;" style="rounded=0;whiteSpace=wrap;html=1;" vertex="1" parent="1">
          <mxGeometry x="200" y="642" width="80" height="40" as="geometry" />
        </mxCell>
        <mxCell id="Bb-n1Ab2ICE6nqUvMJgO-6" value="&lt;span style=&quot;text-align: start; white-space-collapse: preserve; background-color: rgb(255, 255, 255);&quot;&gt;&lt;font face=&quot;Helvetica&quot; style=&quot;font-size: 16px; color: rgb(0, 0, 0);&quot;&gt;ADC&lt;/font&gt;&lt;/span&gt;" style="rounded=0;whiteSpace=wrap;html=1;" vertex="1" parent="1">
          <mxGeometry x="480" y="528" width="80" height="40" as="geometry" />
        </mxCell>
        <mxCell id="Bb-n1Ab2ICE6nqUvMJgO-7" value="&lt;span style=&quot;font-size: 16px; text-align: start; white-space-collapse: preserve; background-color: rgb(255, 255, 255);&quot;&gt;GPIO&lt;/span&gt;" style="rounded=0;whiteSpace=wrap;html=1;" vertex="1" parent="1">
          <mxGeometry x="480" y="586" width="80" height="40" as="geometry" />
        </mxCell>
        <mxCell id="Bb-n1Ab2ICE6nqUvMJgO-8" value="&lt;span style=&quot;font-size: 16px; text-align: start; white-space-collapse: preserve; background-color: rgb(255, 255, 255);&quot;&gt;GPIO&lt;/span&gt;" style="rounded=0;whiteSpace=wrap;html=1;" vertex="1" parent="1">
          <mxGeometry x="480" y="642" width="80" height="40" as="geometry" />
        </mxCell>
        <mxCell id="Bb-n1Ab2ICE6nqUvMJgO-9" value="&lt;font style=&quot;font-size: 16px;&quot;&gt;&lt;font face=&quot;Helvetica&quot;&gt;DHT11&lt;/font&gt;&lt;font style=&quot;&quot;&gt;温湿度传感器&lt;/font&gt;&lt;/font&gt;" style="rounded=0;whiteSpace=wrap;html=1;" vertex="1" parent="1">
          <mxGeometry x="-42" y="523.5" width="170" height="47" as="geometry" />
        </mxCell>
        <mxCell id="Bb-n1Ab2ICE6nqUvMJgO-11" value="&lt;span style=&quot;font-size: 16px;&quot;&gt;&lt;font face=&quot;Helvetica&quot;&gt;火焰传感器&lt;/font&gt;&lt;/span&gt;" style="rounded=0;whiteSpace=wrap;html=1;" vertex="1" parent="1">
          <mxGeometry x="-24" y="583.5" width="150" height="45" as="geometry" />
        </mxCell>
        <mxCell id="Bb-n1Ab2ICE6nqUvMJgO-12" value="&lt;font face=&quot;Helvetica&quot; style=&quot;font-size: 16px;&quot;&gt;LED三色灯&lt;/font&gt;" style="rounded=0;whiteSpace=wrap;html=1;" vertex="1" parent="1">
          <mxGeometry x="-24" y="642" width="150" height="45" as="geometry" />
        </mxCell>
        <mxCell id="Bb-n1Ab2ICE6nqUvMJgO-13" value="&lt;span style=&quot;font-size: 16px;&quot;&gt;&lt;font face=&quot;Helvetica&quot;&gt;光敏传感器&lt;/font&gt;&lt;/span&gt;" style="rounded=0;whiteSpace=wrap;html=1;" vertex="1" parent="1">
          <mxGeometry x="634" y="527" width="150" height="45" as="geometry" />
        </mxCell>
        <mxCell id="Bb-n1Ab2ICE6nqUvMJgO-14" value="&lt;span style=&quot;font-size: 16px;&quot;&gt;&lt;font face=&quot;Helvetica&quot;&gt;蜂鸣器&lt;/font&gt;&lt;/span&gt;" style="rounded=0;whiteSpace=wrap;html=1;" vertex="1" parent="1">
          <mxGeometry x="635" y="585" width="150" height="45" as="geometry" />
        </mxCell>
        <mxCell id="Bb-n1Ab2ICE6nqUvMJgO-15" value="&lt;span style=&quot;font-size: 16px;&quot;&gt;&lt;font face=&quot;Helvetica&quot;&gt;人体红外传感器&lt;/font&gt;&lt;/span&gt;" style="rounded=0;whiteSpace=wrap;html=1;" vertex="1" parent="1">
          <mxGeometry x="635" y="642" width="150" height="45" as="geometry" />
        </mxCell>
        <mxCell id="Bb-n1Ab2ICE6nqUvMJgO-18" value="&lt;font style=&quot;font-size: 16px;&quot;&gt;内置WiFi模块&lt;/font&gt;" style="rounded=0;whiteSpace=wrap;html=1;" vertex="1" parent="1">
          <mxGeometry x="320" y="500" width="120" height="48" as="geometry" />
        </mxCell>
        <mxCell id="Bb-n1Ab2ICE6nqUvMJgO-19" value="&lt;span style=&quot;font-size: 16px;&quot;&gt;ESP32微控制器&lt;/span&gt;" style="text;html=1;align=center;verticalAlign=middle;whiteSpace=wrap;rounded=0;" vertex="1" parent="1">
          <mxGeometry x="320" y="591" width="120" height="30" as="geometry" />
        </mxCell>
        <mxCell id="Bb-n1Ab2ICE6nqUvMJgO-21" value="" style="endArrow=classic;html=1;rounded=0;" edge="1" parent="1">
          <mxGeometry width="50" height="50" relative="1" as="geometry">
            <mxPoint x="132" y="546.0799999999999" as="sourcePoint" />
            <mxPoint x="197" y="546.0799999999999" as="targetPoint" />
          </mxGeometry>
        </mxCell>
        <mxCell id="Bb-n1Ab2ICE6nqUvMJgO-22" value="" style="endArrow=classic;html=1;rounded=0;" edge="1" parent="1">
          <mxGeometry width="50" height="50" relative="1" as="geometry">
            <mxPoint x="629" y="661.0799999999999" as="sourcePoint" />
            <mxPoint x="564" y="661.0799999999999" as="targetPoint" />
          </mxGeometry>
        </mxCell>
        <mxCell id="Bb-n1Ab2ICE6nqUvMJgO-23" value="" style="endArrow=classic;html=1;rounded=0;" edge="1" parent="1">
          <mxGeometry width="50" height="50" relative="1" as="geometry">
            <mxPoint x="629" y="549.0799999999999" as="sourcePoint" />
            <mxPoint x="564" y="549.0799999999999" as="targetPoint" />
          </mxGeometry>
        </mxCell>
        <mxCell id="Bb-n1Ab2ICE6nqUvMJgO-24" value="" style="endArrow=classic;html=1;rounded=0;" edge="1" parent="1">
          <mxGeometry width="50" height="50" relative="1" as="geometry">
            <mxPoint x="132" y="661.5799999999999" as="sourcePoint" />
            <mxPoint x="197" y="661.5799999999999" as="targetPoint" />
          </mxGeometry>
        </mxCell>
        <mxCell id="Bb-n1Ab2ICE6nqUvMJgO-25" value="" style="endArrow=classic;html=1;rounded=0;" edge="1" parent="1">
          <mxGeometry width="50" height="50" relative="1" as="geometry">
            <mxPoint x="132" y="607.0799999999999" as="sourcePoint" />
            <mxPoint x="197" y="607.0799999999999" as="targetPoint" />
          </mxGeometry>
        </mxCell>
        <mxCell id="Bb-n1Ab2ICE6nqUvMJgO-26" value="" style="endArrow=classic;html=1;rounded=0;" edge="1" parent="1">
          <mxGeometry width="50" height="50" relative="1" as="geometry">
            <mxPoint x="629" y="607.0799999999999" as="sourcePoint" />
            <mxPoint x="564" y="607.0799999999999" as="targetPoint" />
          </mxGeometry>
        </mxCell>
        <mxCell id="Bb-n1Ab2ICE6nqUvMJgO-28" value="" style="endArrow=classic;startArrow=classic;html=1;rounded=0;" edge="1" parent="1">
          <mxGeometry width="50" height="50" relative="1" as="geometry">
            <mxPoint x="379.58" y="495" as="sourcePoint" />
            <mxPoint x="380" y="430" as="targetPoint" />
          </mxGeometry>
        </mxCell>
        <mxCell id="Bb-n1Ab2ICE6nqUvMJgO-29" value="&lt;font style=&quot;font-size: 16px;&quot;&gt;WiFi无线连接手机热点配网&lt;/font&gt;" style="text;html=1;align=center;verticalAlign=middle;whiteSpace=wrap;rounded=0;" vertex="1" parent="1">
          <mxGeometry x="260" y="450" width="100" height="30" as="geometry" />
        </mxCell>
        <mxCell id="Bb-n1Ab2ICE6nqUvMJgO-30" value="&lt;font style=&quot;font-size: 16px;&quot;&gt;MQTT协议通信&lt;/font&gt;" style="text;html=1;align=center;verticalAlign=middle;whiteSpace=wrap;rounded=0;" vertex="1" parent="1">
          <mxGeometry x="390" y="450" width="100" height="30" as="geometry" />
        </mxCell>
        <mxCell id="Bb-n1Ab2ICE6nqUvMJgO-32" value="&lt;font style=&quot;font-size: 14px;&quot;&gt;&amp;nbsp; OneNET物联网云平台&lt;/font&gt;" style="ellipse;shape=cloud;whiteSpace=wrap;html=1;" vertex="1" parent="1">
          <mxGeometry x="270" y="330" width="200" height="100" as="geometry" />
        </mxCell>
      </root>
    </mxGraphModel>
  </diagram>
</mxfile>
